<svg width="79" height="103" viewBox="0 0 79 103" fill="none" xmlns="http://www.w3.org/2000/svg">
<path d="M41.3594 58.7734H15.0625L14.9219 43.4453H36.6484C40.4922 43.4453 43.6094 42.9766 46 42.0391C48.4375 41.1016 50.2188 39.7422 51.3438 37.9609C52.4688 36.1328 53.0312 33.8828 53.0312 31.2109C53.0312 28.1641 52.4688 25.7031 51.3438 23.8281C50.2188 21.9531 48.4375 20.5938 46 19.75C43.6094 18.8594 40.5156 18.4141 36.7188 18.4141H23.3594V103H0.4375V0.625H36.7188C42.8594 0.625 48.3438 1.1875 53.1719 2.3125C58 3.4375 62.1016 5.17188 65.4766 7.51562C68.8984 9.85937 71.5 12.7891 73.2812 16.3047C75.0625 19.8203 75.9531 23.9688 75.9531 28.75C75.9531 32.9219 75.0156 36.8125 73.1406 40.4219C71.3125 44.0312 68.3594 46.9609 64.2812 49.2109C60.2031 51.4609 54.7422 52.6797 47.8984 52.8672L41.3594 58.7734ZM40.4453 103H9.22656L17.5234 85.2812H40.4453C43.9609 85.2812 46.8203 84.7188 49.0234 83.5938C51.2266 82.4688 52.8438 80.9453 53.875 79.0234C54.9062 77.1016 55.4219 74.9453 55.4219 72.5547C55.4219 69.7422 54.9297 67.3047 53.9453 65.2422C53.0078 63.1797 51.5078 61.5859 49.4453 60.4609C47.4297 59.3359 44.7344 58.7734 41.3594 58.7734H20.8281L20.9688 43.4453H46.0703L51.4141 49.4922C57.9297 49.3516 63.1328 50.4062 67.0234 52.6562C70.9609 54.8594 73.7969 57.7656 75.5312 61.375C77.2656 64.9844 78.1328 68.8047 78.1328 72.8359C78.1328 79.4922 76.7031 85.0703 73.8438 89.5703C70.9844 94.0234 66.7422 97.375 61.1172 99.625C55.5391 101.875 48.6484 103 40.4453 103Z" fill="black"/>
</svg>
